<?xml version="1.0" encoding="UTF-8"?>
<svg id="Camada_2" data-name="Camada 2" xmlns="http://www.w3.org/2000/svg" viewBox="0 0 1269.39 1085.31">
  <defs>
    <style>
      .cls-1 {
        fill: red;
      }

      .cls-2 {
        fill: #0c2544;
      }

      .cls-3 {
        fill: #2767e2;
      }
    </style>
  </defs>
  <g id="Camada_1-2" data-name="Camada 1">
    <g>
      <g>
        <path class="cls-2" d="M1232.5,729.67c-.84-1.4-1.68-2.81-2.67-4.07-.98-1.4-1.96-2.67-2.95-4.07-22.72-31.56-55.13-56.67-96.79-75.19v-12.06c33.81-18.52,59.62-42.78,77.43-72.66,17.67-29.74,26.51-62.84,26.51-99.17,0-45.17-13.19-85-39.84-119.65-26.65-34.65-64.67-61.72-114.32-81.08-49.52-19.36-108.29-29.04-175.9-29.04h-106.75v5.05c-.14,14.03-1.4,28.19-3.79,42.22-8.28,48.25-31.7,92.72-66.49,128.07,6.17,4.77,12.06,9.82,17.81,15.29.28,0,.56.28.84.7.84.56,1.54,1.4,2.38,2.39.84.56,1.54,1.26,2.39,2.24h153.6c27.35,0,48.11,5.47,62.28,16.27,14.03,10.94,21.04,26.09,21.04,45.45,0,13.61-2.95,25.11-8.98,34.37-6.03,9.4-15.29,16.41-27.91,21.18-12.48,4.91-27.91,7.29-46.43,7.29h-82.9c.42,1.82.84,3.51,1.26,5.19,13.33,62.98,2.52,129.05-29.74,185.44-.98,1.82-2.1,3.65-3.23,5.33h138.73c29.04,0,51.2,5.89,66.49,17.53,15.29,11.64,23,28.34,23,50.22,0,12.48-2.67,23.15-7.57,31.98-.84,1.54-1.68,2.8-2.67,4.21-.98,1.26-1.96,2.52-2.95,3.79-6.73,7.86-15.85,14.17-27.35,18.66-13.33,5.19-29.6,7.86-48.95,7.86h-185.02v-77.01c-1.68,1.68-3.37,3.23-5.19,4.77-7.29,6.59-15.15,12.9-23.28,18.8-65.09,46.85-138.87,65.51-213.07,72.66-1.68.28-3.51.42-5.19.56v176.18h431.76c68.45,0,128.21-10.1,178.99-30.3,50.78-20.06,89.77-48.11,116.71-84.02,27.07-35.91,40.54-77.15,40.54-124,0-41.8-10.66-78.97-31.84-111.38ZM693.71,232.69h-197.36v5.19h197.36c.14-.98.14-1.82.14-2.81,0-.84,0-1.54-.14-2.38ZM496.35,794.33v5.47c1.68-.14,3.51-.28,5.19-.56v-5.61c-1.68.28-3.51.42-5.19.7ZM518.94,621.52c-.84,1.54-1.68,2.81-2.67,4.21-.98,1.4-1.96,2.67-3.09,3.93,1.96,1.4,4.77,1.68,6.59-.14.42-.28.7-.7.98-1.12.28-.42.56-.98.84-1.4.84-2.38-.56-4.49-2.67-5.47ZM741.41,502.29c.7.84,1.26,1.82,1.68,2.81v-4.07c-.42.56-.98.98-1.68,1.26ZM737.9,497.1v-3.79c-.7.14-1.54.42-2.1.84.84.98,1.4,1.96,2.1,2.95ZM742.95,232.69v2.38c0,.98,0,1.82-.14,2.81h5.33v-5.19h-5.19ZM496.35,843.57v10.38c1.68-.14,3.51-.28,5.19-.56v-10.38c-1.68.28-3.51.56-5.19.56ZM741.41,502.29c.7.84,1.26,1.82,1.68,2.81v-4.07c-.42.56-.98.98-1.68,1.26Z"/>
        <g>
          <path class="cls-2" d="M1012.69,854.37c-.14.42-.42.84-.84,1.4-.28.42-.56.84-.98,1.12-32.54,40.96-96.23,31.7-143.22,31.7h-124.56c-2.81,0-5.19-2.38-5.19-5.19v-72.24c1.82-1.54,3.51-3.09,5.19-4.77,1.82-1.54,3.65-3.37,5.33-5.19v76.87h170.15c30.02,0,64.38-1.68,84.3-27.63,13.05-20.48,13.33-50.64-1.96-70.14-12.9-16.55-34.37-23-54.43-25.11-34.65-3.51-70.7-.84-105.48-.84h-54.85c1.26-1.68,2.24-3.37,3.23-5.19,1.12-1.68,2.24-3.51,3.23-5.33,43.76,0,87.67-.14,131.43,0,25.39.14,52.88,2.66,73.78,18.66,27.49,21.18,32.54,62.98,14.87,91.88Z"/>
          <path class="cls-2" d="M748.42,503.69v10.24c-1.54-3.09-3.37-6.03-5.33-8.84-.42-.98-.98-1.96-1.68-2.81.7-.28,1.26-.7,1.68-1.26v-5.61c.14,0,.14.14.14.14,1.82,2.67,3.51,5.33,5.19,8.14Z"/>
          <path class="cls-2" d="M768.48,547.88c.56,1.68,1.12,3.51,1.68,5.33h-5.33c-.42-1.82-.98-3.51-1.68-5.33h5.33Z"/>
          <path class="cls-2" d="M991.93,500.05c-3.51,31-26.09,49.23-55.41,55.41-32.54,6.73-69.15,2.95-102.12,2.95h-12.06c-.42-1.68-.84-3.37-1.26-5.19-.28-1.68-.7-3.51-1.12-5.33h16.97c29.74,0,61.58,2.95,91.18-1.54,17.11-2.67,35.77-9.12,45.73-24.27,8.84-13.61,10.52-32.82,6.03-48.25-9.54-32.96-46.29-39.7-75.89-39.98-49.38-.42-98.89,0-148.27,0-1.68-1.82-3.51-3.65-5.33-5.19-.84-.98-1.54-1.68-2.39-2.24-.84-.98-1.54-1.82-2.38-2.39-.28-.42-.56-.7-.84-.7h106.33c33.24,0,72.94-4.63,103.8,8.98,27.35,12.06,40.4,38.57,37.03,67.75Z"/>
          <path class="cls-2" d="M693.71,232.69c.14.84.14,1.54.14,2.38,0,.98,0,1.82-.14,2.81h-197.36v-.56c-1.12-2.81-2.53-5.33-4.07-7.86.84-1.26,2.38-2.1,4.07-2.1h241.13c.14,1.68.28,3.51.14,5.33h-43.91Z"/>
          <path class="cls-2" d="M496.35,475.64v5.75c-1.68-.7-3.51-1.26-5.33-1.82v-5.47c1.68.42,3.51.98,5.33,1.54Z"/>
          <path class="cls-2" d="M496.35,799.81c-1.82.28-3.51.42-5.33.56v-5.61c1.82-.14,3.51-.28,5.33-.42,1.68-.28,3.51-.42,5.19-.7v5.61c-1.68.28-3.51.42-5.19.56Z"/>
          <path class="cls-2" d="M748.14,237.88h-5.33c.14-.98.14-1.82.14-2.81v-2.38h5.19v5.19Z"/>
          <path class="cls-2" d="M501.54,843.01v10.38c-1.68.28-3.51.42-5.19.56-1.82.14-3.51.42-5.33.56v-10.38c1.82-.14,3.51-.28,5.33-.56,1.68,0,3.51-.28,5.19-.56Z"/>
          <path class="cls-2" d="M1177.09,1017.51c-110.95,79.81-254.87,67.05-384.34,67.05h-296.39c-2.81,0-5.33-2.38-5.33-5.19v-175.76c1.82-.14,3.51-.28,5.33-.42,1.68-.14,3.51-.28,5.19-.56v171.41h107.73c104.08,0,208.16.14,312.24,0,84.44,0,172.25-12.9,243.65-61.02,43.91-29.6,77.43-73.64,89.07-125.68,12.06-54.71,2.1-112.64-28.9-159.07-24.83-35.21-59.19-59.76-97.91-77.43-1.68-.7-2.67-2.81-2.67-4.49v-12.06c0-1.82,1.12-3.65,2.67-4.63,56.95-31.98,96.23-85.99,100.86-152.33,4.35-62.7-20.2-121.19-67.61-162.43-99.17-86.27-239.02-78.13-363.44-77.15v-5.05c0-1.82,0-3.65-.14-5.33h59.9c69.15,0,138.17.56,204.66,22.3,52.46,16.97,102.68,45.59,136.62,89.91,34.79,45.31,47.55,103.38,37.87,159.49-9.54,55.55-43.76,102.82-91.04,132.56-6.87,4.21-9.68,1.54-9.82,8.7,0,6.45,1.4,3.93,8.14,6.45,12.62,4.77,25.11,13.47,36.19,21.32,21.32,15.01,39.7,33.38,54.71,54.85,65.09,97.21,35.91,227.38-57.23,294.57Z"/>
        </g>
      </g>
      <g>
        <g>
          <path class="cls-3" d="M250.03,196.36c-.42.14-.7.42-.98.56-.42.14-.56.42-.84.7-2.53,2.95-1.26,8.84,3.79,8.84v-5.19h5.19c0-4.35-4.07-5.89-7.15-4.91ZM491.02,474.09v5.47c1.82.56,3.65,1.12,5.33,1.82v-5.75c-1.82-.56-3.65-1.12-5.33-1.54ZM496.35,794.33c-1.82.14-3.51.28-5.33.42v5.61c1.82-.14,3.51-.28,5.33-.56,1.68-.14,3.51-.28,5.19-.56v-5.61c-1.68.28-3.51.42-5.19.7ZM496.35,843.57c-1.82.28-3.51.42-5.33.56v5.61c1.82-.14,3.51-.28,5.33-.56,1.68-.14,3.51-.28,5.19-.56v-5.61c-1.68.28-3.51.56-5.19.56ZM518.94,621.52c-.84,1.54-1.68,2.81-2.67,4.21-.98,1.4-1.96,2.67-3.09,3.93,1.96,1.4,4.77,1.68,6.59-.14.42-.28.7-.7.98-1.12.28-.42.56-.98.84-1.4.84-2.38-.56-4.49-2.67-5.47ZM737.62,232.69c.14-1.82,0-3.65-.14-5.33h-241.13c-1.68,0-3.23.84-4.07,2.1,1.54,2.52,2.95,5.05,4.07,7.86v.56h197.36c.14-.98.14-1.82.14-2.81,0-.84,0-1.54-.14-2.38h43.91Z"/>
          <path class="cls-1" d="M250.03,196.36c-.42.14-.7.42-.98.56-.42.14-.56.42-.84.7-2.53,2.95-1.26,8.84,3.79,8.84h5.19v-5.19c0-4.35-4.07-5.89-7.15-4.91ZM252,650.7v5.33h5.19v-5.33h-5.19ZM252,320.5v5.33h5.19v-5.33h-5.19ZM252,521.79v5.19h5.19v-5.19h-5.19ZM496.35,843.57c-1.82.28-3.51.42-5.33.56v10.38c1.82-.14,3.51-.42,5.33-.56,1.68-.14,3.51-.28,5.19-.56v-10.38c-1.68.28-3.51.56-5.19.56ZM518.94,621.52c-.84,1.54-1.68,2.81-2.67,4.21-.98,1.4-1.96,2.67-3.09,3.93,1.96,1.4,4.77,1.68,6.59-.14.42-.28.7-.7.98-1.12.28-.42.56-.98.84-1.4.84-2.38-.56-4.49-2.67-5.47ZM541.52,232.69c-.42-1.82-.98-3.65-1.54-5.33h-43.62c-1.68,0-3.23.84-4.07,2.1,1.54,2.52,2.95,5.05,4.07,7.86v.56h46.57c-.56-1.68-.98-3.51-1.4-5.19ZM737.48,227.36h-43.9c.14,1.68.28,3.51.14,5.33h43.91c.14-1.82,0-3.65-.14-5.33ZM743.23,495.56s0-.14-.14-.14v5.61c-.42.56-.98.98-1.68,1.26.7.84,1.26,1.82,1.68,2.81,1.96,2.81,3.79,5.75,5.33,8.84v-10.24c-1.68-2.8-3.37-5.47-5.19-8.14ZM737.9,497.1v-3.79c-.7.14-1.54.42-2.1.84.84.98,1.4,1.96,2.1,2.95ZM742.95,232.69v2.38c0,.98,0,1.82-.14,2.81h5.33v-5.19h-5.19ZM768.48,547.88h-5.33c.7,1.82,1.26,3.51,1.68,5.33h5.33c-.56-1.82-1.12-3.65-1.68-5.33ZM250.03,196.36c-.42.14-.7.42-.98.56-.42.14-.56.42-.84.7-2.53,2.95-1.26,8.84,3.79,8.84h5.19v-5.19c0-4.35-4.07-5.89-7.15-4.91ZM252,650.7v5.33h5.19v-5.33h-5.19ZM252,521.79v5.19h5.19v-5.19h-5.19ZM252,320.5v5.33h5.19v-5.33h-5.19ZM518.94,621.52c-.84,1.54-1.68,2.81-2.67,4.21-.98,1.4-1.96,2.67-3.09,3.93,1.96,1.4,4.77,1.68,6.59-.14.42-.28.7-.7.98-1.12.28-.42.56-.98.84-1.4.84-2.38-.56-4.49-2.67-5.47ZM541.52,232.69c-.42-1.82-.98-3.65-1.54-5.33h-43.62c-1.68,0-3.23.84-4.07,2.1,1.54,2.52,2.95,5.05,4.07,7.86v.56h46.57c-.56-1.68-.98-3.51-1.4-5.19ZM252,650.7v5.33h5.19v-5.33h-5.19ZM252,521.79v5.19h5.19v-5.19h-5.19ZM518.94,621.52c-.84,1.54-1.68,2.81-2.67,4.21-.98,1.4-1.96,2.67-3.09,3.93,1.96,1.4,4.77,1.68,6.59-.14.42-.28.7-.7.98-1.12.28-.42.56-.98.84-1.4.84-2.38-.56-4.49-2.67-5.47ZM250.03,196.36c-.42.14-.7.42-.98.56-.42.14-.56.42-.84.7-2.53,2.95-1.26,8.84,3.79,8.84h5.19v-5.19c0-4.35-4.07-5.89-7.15-4.91ZM252,320.5v5.33h5.19v-5.33h-5.19ZM541.52,232.69c-.42-1.82-.98-3.65-1.54-5.33h-43.62c-1.68,0-3.23.84-4.07,2.1,1.54,2.52,2.95,5.05,4.07,7.86v.56h46.57c-.56-1.68-.98-3.51-1.4-5.19Z"/>
        </g>
        <g>
          <g>
            <rect class="cls-3" x="252" y="650.7" width="5.19" height="5.33"/>
            <rect class="cls-3" x="252" y="521.79" width="5.19" height="5.19"/>
            <path class="cls-3" d="M521.6,626.99c-.28.42-.56.98-.84,1.4-.28.42-.56.84-.98,1.12-1.82,1.82-4.63,1.54-6.59.14,1.12-1.26,2.1-2.52,3.09-3.93.98-1.4,1.82-2.67,2.67-4.21,2.1.98,3.51,3.09,2.67,5.47Z"/>
            <path class="cls-1" d="M252,650.7v5.33h5.19v-5.33h-5.19ZM252,521.79v5.19h5.19v-5.19h-5.19ZM491.02,474.09v5.47c1.82.56,3.65,1.12,5.33,1.82v-5.75c-1.82-.56-3.65-1.12-5.33-1.54ZM518.94,621.52c-.84,1.54-1.68,2.81-2.67,4.21-.98,1.4-1.96,2.67-3.09,3.93,1.96,1.4,4.77,1.68,6.59-.14.42-.28.7-.7.98-1.12.28-.42.56-.98.84-1.4.84-2.38-.56-4.49-2.67-5.47Z"/>
          </g>
          <g>
            <path class="cls-3" d="M257.19,201.27v5.19h-5.19c-5.05,0-6.31-5.89-3.79-8.84.28-.28.42-.56.84-.7.28-.14.56-.42.98-.56,3.09-.98,7.15.56,7.15,4.91Z"/>
            <rect class="cls-3" x="252" y="320.5" width="5.19" height="5.33"/>
            <path class="cls-3" d="M496.63,237.88h-.28v-.56c.14.14.14.28.14.42.14,0,.14.14.14.14Z"/>
            <path class="cls-1" d="M250.03,196.36c-.42.14-.7.42-.98.56-.42.14-.56.42-.84.7-2.53,2.95-1.26,8.84,3.79,8.84h5.19v-5.19c0-4.35-4.07-5.89-7.15-4.91ZM252,320.5v5.33h5.19v-5.33h-5.19ZM546.43,232.69c-.42-1.82-.98-3.65-1.68-5.33h-48.39c-1.68,0-3.23.84-4.07,2.1,1.54,2.52,2.95,5.05,4.07,7.86v.56h51.34c-.28-1.68-.7-3.51-1.26-5.19Z"/>
          </g>
          <g>
            <path class="cls-3" d="M501.54,843.01v10.38c-1.68.28-3.51.42-5.19.56-1.82.14-3.51.42-5.33.56v-10.38c1.82-.14,3.51-.28,5.33-.56,1.68,0,3.51-.28,5.19-.56Z"/>
            <path class="cls-3" d="M735.79,494.15c.56-.42,1.4-.7,2.1-.84v3.79c-.7-.98-1.26-1.96-2.1-2.95Z"/>
            <path class="cls-3" d="M748.42,503.69v10.24c-1.54-3.09-3.37-6.03-5.33-8.84-.42-.98-.98-1.96-1.68-2.81.7-.28,1.26-.7,1.68-1.26v-5.61c.14,0,.14.14.14.14,1.82,2.67,3.51,5.33,5.19,8.14Z"/>
            <path class="cls-3" d="M748.14,237.88h-5.33c.14-.98.14-1.82.14-2.81v-2.38h5.19v5.19Z"/>
            <path class="cls-3" d="M770.16,553.21h-5.33c-.42-1.82-.98-3.51-1.68-5.33h5.33c.56,1.68,1.12,3.51,1.68,5.33Z"/>
            <path class="cls-1" d="M496.35,794.33c-1.82.14-3.51.28-5.33.42v5.61c1.82-.14,3.51-.28,5.33-.56,1.68-.14,3.51-.28,5.19-.56v-5.61c-1.68.28-3.51.42-5.19.7ZM737.62,232.69c.14-1.82,0-3.65-.14-5.33h-49.1c.14,1.68.14,3.51.14,5.33.14,1.68.14,3.37,0,5.19h5.19c.14-.98.14-1.82.14-2.81,0-.84,0-1.54-.14-2.38h43.91ZM742.95,232.69v2.38c0,.98,0,1.82-.14,2.81h5.33v-5.19h-5.19ZM743.23,495.56s0-.14-.14-.14v5.61c-.42.56-.98.98-1.68,1.26.7.84,1.26,1.82,1.68,2.81,1.96,2.81,3.79,5.75,5.33,8.84v-10.24c-1.68-2.8-3.37-5.47-5.19-8.14ZM737.9,497.1v-3.79c-.7.14-1.54.42-2.1.84.84.98,1.4,1.96,2.1,2.95ZM768.48,547.88h-5.33c.7,1.82,1.26,3.51,1.68,5.33h5.33c-.56-1.82-1.12-3.65-1.68-5.33ZM496.35,843.57c-1.82.28-3.51.42-5.33.56v10.38c1.82-.14,3.51-.42,5.33-.56,1.68-.14,3.51-.28,5.19-.56v-10.38c-1.68.28-3.51.56-5.19.56Z"/>
          </g>
        </g>
      </g>
      <g>
        <path class="cls-3" d="M738.74,498.17c-23-33.52-56.25-59.9-99.73-79.25v-12.06c33.81-18.52,59.62-42.78,77.43-72.66,17.67-29.74,26.51-62.84,26.51-99.17,0-45.17-13.19-85-39.84-119.65-26.65-34.65-64.67-61.72-114.32-81.08-49.52-19.36-108.29-29.04-175.9-29.04H5.26v846.68h431.76c68.59,0,128.21-10.1,178.99-30.3,50.78-20.06,89.77-48.11,116.71-84.02,27.07-35.91,40.54-77.15,40.54-124,0-43.48-11.5-82.06-34.51-115.44ZM252,201.22h160.89c27.35,0,48.11,5.47,62.28,16.27,14.03,10.94,21.18,26.09,21.18,45.45,0,13.61-3.09,25.11-9.12,34.37-6.03,9.4-15.29,16.41-27.77,21.18-12.62,4.91-28.05,7.29-46.57,7.29h-160.89v-124.56ZM516.27,625.68c-6.87,9.68-16.97,17.25-30.3,22.44-13.33,5.19-29.6,7.86-48.95,7.86h-185.02v-134.24h185.02c29.04,0,51.2,5.89,66.49,17.53,15.29,11.64,23,28.33,23,50.22,0,14.45-3.37,26.51-10.24,36.19Z"/>
        <g>
          <path class="cls-3" d="M511.73,623.03c-19.87,25.95-54.2,27.69-84.21,27.69h-175.52l5.26,5.26v-134.24l-5.26,5.26h97.95c34.74,0,70.77-2.68,105.41.87,20.11,2.06,41.59,8.54,54.53,25.05,15.22,19.41,15.06,49.83,1.84,70.1-3.71,5.69,5.4,10.97,9.08,5.31,18.82-28.86,13.7-71.91-14.12-93.19-20.92-16-48.29-18.61-73.74-18.66-44.73-.1-89.46,0-134.18,0h-46.77c-2.84,0-5.26,2.41-5.26,5.26v134.24c0,2.84,2.41,5.26,5.26,5.26h124.56c47.46,0,111.93,9.31,144.26-32.9,4.11-5.37-5.02-10.62-9.08-5.31Z"/>
          <path class="cls-3" d="M252,206.48c53.62,0,107.27-.45,160.89,0,29.68.25,66.38,7.02,76.02,39.9,4.54,15.48,2.73,34.67-6.21,48.27-10,15.21-28.49,21.6-45.71,24.25-29.54,4.54-61.47,1.62-91.19,1.62h-93.8l5.26,5.26v-124.56c0-6.77-10.52-6.78-10.52,0v124.56c0,2.84,2.41,5.26,5.26,5.26h91.39c32.97,0,69.53,3.69,102.06-3.03,29.34-6.06,51.92-24.45,55.57-55.28,3.46-29.28-9.85-55.79-37.16-67.81-30.96-13.62-70.67-8.96-103.88-8.96h-107.98c-6.77,0-6.78,10.52,0,10.52Z"/>
          <path class="cls-3" d="M743.28,495.52c-15.09-21.4-33.39-39.74-54.81-54.84-11.04-7.78-23.49-16.49-36.15-21.32-6.73-2.57-8.06,0-8.05-6.48,0-7.11,2.84-4.42,9.68-8.71,47.37-29.73,81.54-76.97,91.13-132.5,9.67-56.04-3.05-114.24-37.83-159.49-34.05-44.29-84.2-72.91-136.68-89.97C504.06.6,434.98,0,365.93,0H5.26C2.42,0,0,2.41,0,5.26v846.68c0,2.84,2.41,5.26,5.26,5.26h296.37c129.53,0,273.4,12.76,384.31-67.09,93.2-67.11,122.41-197.29,57.34-294.59-3.75-5.6-12.86-.34-9.08,5.31,31.12,46.54,41.06,104.42,28.89,159.06-11.62,52.15-45.11,96.15-89.04,125.74-71.44,48.11-159.23,61-243.6,61.05-104.07.06-208.14,0-312.21,0H5.26c1.75,1.75,3.51,3.51,5.26,5.26V5.26l-5.26,5.26h282.32c128.85,0,277.87-13.59,382,77.03,47.36,41.22,71.93,99.68,67.57,162.41-4.61,66.36-43.8,120.26-100.8,152.35-1.61.9-2.61,2.71-2.61,4.54v12.06c0,1.71.97,3.8,2.61,4.54,38.76,17.69,73.1,42.27,97.85,77.37,3.87,5.49,13,.24,9.08-5.31Z"/>
        </g>
      </g>
    </g>
  </g>
</svg>